<mxfile host="app.diagrams.net" modified="2023-09-25T20:22:38.517Z" agent="Mozilla/5.0 (Windows NT 10.0; Win64; x64) AppleWebKit/537.36 (KHTML, like Gecko) Chrome/116.0.0.0 Safari/537.36" etag="DlneYKb9kLx-vrjKSJro" version="21.8.2" type="device">
  <diagram id="C5RBs43oDa-KdzZeNtuy" name="Page-1">
    <mxGraphModel dx="1115" dy="655" grid="1" gridSize="10" guides="1" tooltips="1" connect="1" arrows="1" fold="1" page="1" pageScale="1" pageWidth="827" pageHeight="1169" math="0" shadow="0">
      <root>
        <mxCell id="WIyWlLk6GJQsqaUBKTNV-0" />
        <mxCell id="WIyWlLk6GJQsqaUBKTNV-1" parent="WIyWlLk6GJQsqaUBKTNV-0" />
        <mxCell id="J1sziNgThgZXOS3bAB_B-25" style="edgeStyle=orthogonalEdgeStyle;rounded=0;orthogonalLoop=1;jettySize=auto;html=1;entryX=0.016;entryY=0.014;entryDx=0;entryDy=0;entryPerimeter=0;endArrow=none;endFill=0;" parent="WIyWlLk6GJQsqaUBKTNV-1" source="J1sziNgThgZXOS3bAB_B-0" target="J1sziNgThgZXOS3bAB_B-13" edge="1">
          <mxGeometry relative="1" as="geometry">
            <Array as="points">
              <mxPoint x="230" y="249.94" />
              <mxPoint x="495" y="249.94" />
              <mxPoint x="495" y="289.94" />
            </Array>
          </mxGeometry>
        </mxCell>
        <mxCell id="J1sziNgThgZXOS3bAB_B-27" value="Lidera" style="edgeLabel;html=1;align=center;verticalAlign=middle;resizable=0;points=[];" parent="J1sziNgThgZXOS3bAB_B-25" vertex="1" connectable="0">
          <mxGeometry x="-0.0184" y="-1" relative="1" as="geometry">
            <mxPoint as="offset" />
          </mxGeometry>
        </mxCell>
        <mxCell id="J1sziNgThgZXOS3bAB_B-34" style="edgeStyle=orthogonalEdgeStyle;rounded=0;orthogonalLoop=1;jettySize=auto;html=1;endArrow=none;endFill=0;startArrow=diamond;startFill=0;" parent="WIyWlLk6GJQsqaUBKTNV-1" source="J1sziNgThgZXOS3bAB_B-0" target="J1sziNgThgZXOS3bAB_B-14" edge="1">
          <mxGeometry relative="1" as="geometry">
            <Array as="points">
              <mxPoint x="430" y="339.94" />
              <mxPoint x="430" y="329.94" />
            </Array>
          </mxGeometry>
        </mxCell>
        <mxCell id="J1sziNgThgZXOS3bAB_B-35" value="Contem" style="edgeLabel;html=1;align=center;verticalAlign=middle;resizable=0;points=[];" parent="J1sziNgThgZXOS3bAB_B-34" vertex="1" connectable="0">
          <mxGeometry x="-0.2326" y="-2" relative="1" as="geometry">
            <mxPoint x="1" as="offset" />
          </mxGeometry>
        </mxCell>
        <mxCell id="J1sziNgThgZXOS3bAB_B-48" value="0:1" style="edgeLabel;html=1;align=center;verticalAlign=middle;resizable=0;points=[];fontSize=11;fontFamily=Helvetica;fontColor=default;" parent="J1sziNgThgZXOS3bAB_B-34" vertex="1" connectable="0">
          <mxGeometry x="0.8279" y="4" relative="1" as="geometry">
            <mxPoint as="offset" />
          </mxGeometry>
        </mxCell>
        <mxCell id="J1sziNgThgZXOS3bAB_B-0" value="ALUNO" style="swimlane;fontStyle=0;childLayout=stackLayout;horizontal=1;startSize=30;horizontalStack=0;resizeParent=1;resizeParentMax=0;resizeLast=0;collapsible=1;marginBottom=0;whiteSpace=wrap;html=1;" parent="WIyWlLk6GJQsqaUBKTNV-1" vertex="1">
          <mxGeometry x="160" y="279.94" width="140" height="120" as="geometry" />
        </mxCell>
        <mxCell id="J1sziNgThgZXOS3bAB_B-2" value="- Nome : String" style="text;strokeColor=none;fillColor=none;align=left;verticalAlign=middle;spacingLeft=4;spacingRight=4;overflow=hidden;points=[[0,0.5],[1,0.5]];portConstraint=eastwest;rotatable=0;whiteSpace=wrap;html=1;" parent="J1sziNgThgZXOS3bAB_B-0" vertex="1">
          <mxGeometry y="30" width="140" height="30" as="geometry" />
        </mxCell>
        <mxCell id="J1sziNgThgZXOS3bAB_B-1" value="+ E-mail : String" style="text;strokeColor=none;fillColor=none;align=left;verticalAlign=middle;spacingLeft=4;spacingRight=4;overflow=hidden;points=[[0,0.5],[1,0.5]];portConstraint=eastwest;rotatable=0;whiteSpace=wrap;html=1;" parent="J1sziNgThgZXOS3bAB_B-0" vertex="1">
          <mxGeometry y="60" width="140" height="30" as="geometry" />
        </mxCell>
        <mxCell id="J1sziNgThgZXOS3bAB_B-3" value="+ Grupo : Grupo" style="text;strokeColor=none;fillColor=none;align=left;verticalAlign=middle;spacingLeft=4;spacingRight=4;overflow=hidden;points=[[0,0.5],[1,0.5]];portConstraint=eastwest;rotatable=0;whiteSpace=wrap;html=1;" parent="J1sziNgThgZXOS3bAB_B-0" vertex="1">
          <mxGeometry y="90" width="140" height="30" as="geometry" />
        </mxCell>
        <mxCell id="J1sziNgThgZXOS3bAB_B-38" style="edgeStyle=orthogonalEdgeStyle;rounded=0;orthogonalLoop=1;jettySize=auto;html=1;endArrow=none;endFill=0;" parent="WIyWlLk6GJQsqaUBKTNV-1" source="J1sziNgThgZXOS3bAB_B-4" target="J1sziNgThgZXOS3bAB_B-18" edge="1">
          <mxGeometry relative="1" as="geometry" />
        </mxCell>
        <mxCell id="J1sziNgThgZXOS3bAB_B-42" value="Faz" style="edgeLabel;html=1;align=center;verticalAlign=middle;resizable=0;points=[];fontSize=11;fontFamily=Helvetica;fontColor=default;" parent="J1sziNgThgZXOS3bAB_B-38" vertex="1" connectable="0">
          <mxGeometry x="-0.0141" y="3" relative="1" as="geometry">
            <mxPoint as="offset" />
          </mxGeometry>
        </mxCell>
        <mxCell id="J1sziNgThgZXOS3bAB_B-4" value="PROFESSOR" style="swimlane;fontStyle=0;childLayout=stackLayout;horizontal=1;startSize=30;horizontalStack=0;resizeParent=1;resizeParentMax=0;resizeLast=0;collapsible=1;marginBottom=0;whiteSpace=wrap;html=1;" parent="WIyWlLk6GJQsqaUBKTNV-1" vertex="1">
          <mxGeometry x="160" y="559.94" width="140" height="90" as="geometry" />
        </mxCell>
        <mxCell id="J1sziNgThgZXOS3bAB_B-5" value="- Nome : String" style="text;strokeColor=none;fillColor=none;align=left;verticalAlign=middle;spacingLeft=4;spacingRight=4;overflow=hidden;points=[[0,0.5],[1,0.5]];portConstraint=eastwest;rotatable=0;whiteSpace=wrap;html=1;" parent="J1sziNgThgZXOS3bAB_B-4" vertex="1">
          <mxGeometry y="30" width="140" height="30" as="geometry" />
        </mxCell>
        <mxCell id="J1sziNgThgZXOS3bAB_B-6" value="+ E-mail : String" style="text;strokeColor=none;fillColor=none;align=left;verticalAlign=middle;spacingLeft=4;spacingRight=4;overflow=hidden;points=[[0,0.5],[1,0.5]];portConstraint=eastwest;rotatable=0;whiteSpace=wrap;html=1;" parent="J1sziNgThgZXOS3bAB_B-4" vertex="1">
          <mxGeometry y="60" width="140" height="30" as="geometry" />
        </mxCell>
        <mxCell id="J1sziNgThgZXOS3bAB_B-8" value="ESTANDE" style="swimlane;fontStyle=0;childLayout=stackLayout;horizontal=1;startSize=30;horizontalStack=0;resizeParent=1;resizeParentMax=0;resizeLast=0;collapsible=1;marginBottom=0;whiteSpace=wrap;html=1;" parent="WIyWlLk6GJQsqaUBKTNV-1" vertex="1">
          <mxGeometry x="570" y="519.94" width="130" height="60" as="geometry" />
        </mxCell>
        <mxCell id="J1sziNgThgZXOS3bAB_B-9" value="+ Grupo : Grupo" style="text;strokeColor=none;fillColor=none;align=left;verticalAlign=middle;spacingLeft=4;spacingRight=4;overflow=hidden;points=[[0,0.5],[1,0.5]];portConstraint=eastwest;rotatable=0;whiteSpace=wrap;html=1;" parent="J1sziNgThgZXOS3bAB_B-8" vertex="1">
          <mxGeometry y="30" width="130" height="30" as="geometry" />
        </mxCell>
        <mxCell id="J1sziNgThgZXOS3bAB_B-28" style="edgeStyle=orthogonalEdgeStyle;rounded=0;orthogonalLoop=1;jettySize=auto;html=1;endArrow=none;endFill=0;" parent="WIyWlLk6GJQsqaUBKTNV-1" source="J1sziNgThgZXOS3bAB_B-12" target="J1sziNgThgZXOS3bAB_B-8" edge="1">
          <mxGeometry relative="1" as="geometry">
            <Array as="points">
              <mxPoint x="630" y="449.94" />
              <mxPoint x="635" y="449.94" />
            </Array>
          </mxGeometry>
        </mxCell>
        <mxCell id="J1sziNgThgZXOS3bAB_B-29" value="Possui" style="edgeLabel;html=1;align=center;verticalAlign=middle;resizable=0;points=[];" parent="J1sziNgThgZXOS3bAB_B-28" vertex="1" connectable="0">
          <mxGeometry x="0.16" y="-2" relative="1" as="geometry">
            <mxPoint as="offset" />
          </mxGeometry>
        </mxCell>
        <mxCell id="J1sziNgThgZXOS3bAB_B-44" value="1" style="edgeLabel;html=1;align=center;verticalAlign=middle;resizable=0;points=[];fontSize=11;fontFamily=Helvetica;fontColor=default;" parent="J1sziNgThgZXOS3bAB_B-28" vertex="1" connectable="0">
          <mxGeometry x="0.7963" y="2" relative="1" as="geometry">
            <mxPoint x="13" as="offset" />
          </mxGeometry>
        </mxCell>
        <mxCell id="J1sziNgThgZXOS3bAB_B-12" value="GRUPO" style="swimlane;fontStyle=0;childLayout=stackLayout;horizontal=1;startSize=30;horizontalStack=0;resizeParent=1;resizeParentMax=0;resizeLast=0;collapsible=1;marginBottom=0;whiteSpace=wrap;html=1;" parent="WIyWlLk6GJQsqaUBKTNV-1" vertex="1">
          <mxGeometry x="560" y="259.94" width="140" height="120" as="geometry" />
        </mxCell>
        <mxCell id="J1sziNgThgZXOS3bAB_B-13" value="- Lider : Aluno" style="text;strokeColor=none;fillColor=none;align=left;verticalAlign=middle;spacingLeft=4;spacingRight=4;overflow=hidden;points=[[0,0.5],[1,0.5]];portConstraint=eastwest;rotatable=0;whiteSpace=wrap;html=1;" parent="J1sziNgThgZXOS3bAB_B-12" vertex="1">
          <mxGeometry y="30" width="140" height="30" as="geometry" />
        </mxCell>
        <mxCell id="J1sziNgThgZXOS3bAB_B-14" value="- Alunos : Aluno [ ]&amp;nbsp;" style="text;strokeColor=none;fillColor=none;align=left;verticalAlign=middle;spacingLeft=4;spacingRight=4;overflow=hidden;points=[[0,0.5],[1,0.5]];portConstraint=eastwest;rotatable=0;whiteSpace=wrap;html=1;" parent="J1sziNgThgZXOS3bAB_B-12" vertex="1">
          <mxGeometry y="60" width="140" height="30" as="geometry" />
        </mxCell>
        <mxCell id="J1sziNgThgZXOS3bAB_B-15" value="+ nome : String" style="text;strokeColor=none;fillColor=none;align=left;verticalAlign=middle;spacingLeft=4;spacingRight=4;overflow=hidden;points=[[0,0.5],[1,0.5]];portConstraint=eastwest;rotatable=0;whiteSpace=wrap;html=1;" parent="J1sziNgThgZXOS3bAB_B-12" vertex="1">
          <mxGeometry y="90" width="140" height="30" as="geometry" />
        </mxCell>
        <mxCell id="J1sziNgThgZXOS3bAB_B-33" style="edgeStyle=orthogonalEdgeStyle;rounded=0;orthogonalLoop=1;jettySize=auto;html=1;endArrow=none;endFill=0;" parent="WIyWlLk6GJQsqaUBKTNV-1" source="J1sziNgThgZXOS3bAB_B-16" target="J1sziNgThgZXOS3bAB_B-15" edge="1">
          <mxGeometry relative="1" as="geometry" />
        </mxCell>
        <mxCell id="J1sziNgThgZXOS3bAB_B-36" value="Pontua" style="edgeLabel;html=1;align=center;verticalAlign=middle;resizable=0;points=[];" parent="J1sziNgThgZXOS3bAB_B-33" vertex="1" connectable="0">
          <mxGeometry x="-0.5434" relative="1" as="geometry">
            <mxPoint as="offset" />
          </mxGeometry>
        </mxCell>
        <mxCell id="J1sziNgThgZXOS3bAB_B-16" value="AVALIAÇÃO" style="swimlane;fontStyle=0;childLayout=stackLayout;horizontal=1;startSize=30;horizontalStack=0;resizeParent=1;resizeParentMax=0;resizeLast=0;collapsible=1;marginBottom=0;whiteSpace=wrap;html=1;" parent="WIyWlLk6GJQsqaUBKTNV-1" vertex="1">
          <mxGeometry x="350" y="449.94" width="140" height="120" as="geometry" />
        </mxCell>
        <mxCell id="J1sziNgThgZXOS3bAB_B-17" value="+ Nota" style="text;strokeColor=none;fillColor=none;align=left;verticalAlign=middle;spacingLeft=4;spacingRight=4;overflow=hidden;points=[[0,0.5],[1,0.5]];portConstraint=eastwest;rotatable=0;whiteSpace=wrap;html=1;" parent="J1sziNgThgZXOS3bAB_B-16" vertex="1">
          <mxGeometry y="30" width="140" height="30" as="geometry" />
        </mxCell>
        <mxCell id="J1sziNgThgZXOS3bAB_B-18" value="+ Data : date" style="text;strokeColor=none;fillColor=none;align=left;verticalAlign=middle;spacingLeft=4;spacingRight=4;overflow=hidden;points=[[0,0.5],[1,0.5]];portConstraint=eastwest;rotatable=0;whiteSpace=wrap;html=1;" parent="J1sziNgThgZXOS3bAB_B-16" vertex="1">
          <mxGeometry y="60" width="140" height="30" as="geometry" />
        </mxCell>
        <mxCell id="J1sziNgThgZXOS3bAB_B-19" value="+ Hora: time" style="text;strokeColor=none;fillColor=none;align=left;verticalAlign=middle;spacingLeft=4;spacingRight=4;overflow=hidden;points=[[0,0.5],[1,0.5]];portConstraint=eastwest;rotatable=0;whiteSpace=wrap;html=1;" parent="J1sziNgThgZXOS3bAB_B-16" vertex="1">
          <mxGeometry y="90" width="140" height="30" as="geometry" />
        </mxCell>
        <mxCell id="J1sziNgThgZXOS3bAB_B-37" style="edgeStyle=orthogonalEdgeStyle;rounded=0;orthogonalLoop=1;jettySize=auto;html=1;entryX=-0.007;entryY=0.143;entryDx=0;entryDy=0;entryPerimeter=0;endArrow=none;endFill=0;" parent="WIyWlLk6GJQsqaUBKTNV-1" source="J1sziNgThgZXOS3bAB_B-0" target="J1sziNgThgZXOS3bAB_B-17" edge="1">
          <mxGeometry relative="1" as="geometry" />
        </mxCell>
        <mxCell id="J1sziNgThgZXOS3bAB_B-43" value="Faz" style="edgeLabel;html=1;align=center;verticalAlign=middle;resizable=0;points=[];fontSize=11;fontFamily=Helvetica;fontColor=default;" parent="J1sziNgThgZXOS3bAB_B-37" vertex="1" connectable="0">
          <mxGeometry x="0.2372" y="4" relative="1" as="geometry">
            <mxPoint as="offset" />
          </mxGeometry>
        </mxCell>
        <mxCell id="J1sziNgThgZXOS3bAB_B-45" value="0:N" style="text;html=1;align=center;verticalAlign=middle;resizable=0;points=[];autosize=1;strokeColor=none;fillColor=none;fontSize=11;fontFamily=Helvetica;fontColor=default;" parent="WIyWlLk6GJQsqaUBKTNV-1" vertex="1">
          <mxGeometry x="630" y="409.94" width="40" height="30" as="geometry" />
        </mxCell>
        <mxCell id="J1sziNgThgZXOS3bAB_B-46" value="1:N" style="text;html=1;align=center;verticalAlign=middle;resizable=0;points=[];autosize=1;strokeColor=none;fillColor=none;fontSize=11;fontFamily=Helvetica;fontColor=default;" parent="WIyWlLk6GJQsqaUBKTNV-1" vertex="1">
          <mxGeometry x="410" y="417.94" width="40" height="30" as="geometry" />
        </mxCell>
        <mxCell id="J1sziNgThgZXOS3bAB_B-47" value="1:1" style="text;html=1;align=center;verticalAlign=middle;resizable=0;points=[];autosize=1;strokeColor=none;fillColor=none;fontSize=11;fontFamily=Helvetica;fontColor=default;" parent="WIyWlLk6GJQsqaUBKTNV-1" vertex="1">
          <mxGeometry x="520" y="369.94" width="40" height="30" as="geometry" />
        </mxCell>
        <mxCell id="J1sziNgThgZXOS3bAB_B-50" value="1:N" style="text;html=1;align=center;verticalAlign=middle;resizable=0;points=[];autosize=1;strokeColor=none;fillColor=none;fontSize=11;fontFamily=Helvetica;fontColor=default;" parent="WIyWlLk6GJQsqaUBKTNV-1" vertex="1">
          <mxGeometry x="290" y="317.94" width="40" height="30" as="geometry" />
        </mxCell>
        <mxCell id="J1sziNgThgZXOS3bAB_B-51" value="1:1" style="text;html=1;align=center;verticalAlign=middle;resizable=0;points=[];autosize=1;strokeColor=none;fillColor=none;fontSize=11;fontFamily=Helvetica;fontColor=default;" parent="WIyWlLk6GJQsqaUBKTNV-1" vertex="1">
          <mxGeometry x="520" y="267.94" width="40" height="30" as="geometry" />
        </mxCell>
        <mxCell id="J1sziNgThgZXOS3bAB_B-52" value="1:1" style="text;html=1;align=center;verticalAlign=middle;resizable=0;points=[];autosize=1;strokeColor=none;fillColor=none;fontSize=11;fontFamily=Helvetica;fontColor=default;" parent="WIyWlLk6GJQsqaUBKTNV-1" vertex="1">
          <mxGeometry x="220" y="257.94" width="40" height="30" as="geometry" />
        </mxCell>
        <mxCell id="J1sziNgThgZXOS3bAB_B-53" value="0:N" style="text;html=1;align=center;verticalAlign=middle;resizable=0;points=[];autosize=1;strokeColor=none;fillColor=none;fontSize=11;fontFamily=Helvetica;fontColor=default;" parent="WIyWlLk6GJQsqaUBKTNV-1" vertex="1">
          <mxGeometry x="310" y="459.94" width="40" height="30" as="geometry" />
        </mxCell>
        <mxCell id="J1sziNgThgZXOS3bAB_B-54" value="1:N" style="text;html=1;align=center;verticalAlign=middle;resizable=0;points=[];autosize=1;strokeColor=none;fillColor=none;fontSize=11;fontFamily=Helvetica;fontColor=default;" parent="WIyWlLk6GJQsqaUBKTNV-1" vertex="1">
          <mxGeometry x="310" y="519.94" width="40" height="30" as="geometry" />
        </mxCell>
        <mxCell id="J1sziNgThgZXOS3bAB_B-55" value="0:1" style="text;html=1;align=center;verticalAlign=middle;resizable=0;points=[];autosize=1;strokeColor=none;fillColor=none;fontSize=11;fontFamily=Helvetica;fontColor=default;" parent="WIyWlLk6GJQsqaUBKTNV-1" vertex="1">
          <mxGeometry x="220" y="537.94" width="40" height="30" as="geometry" />
        </mxCell>
        <mxCell id="J1sziNgThgZXOS3bAB_B-56" value="0:1" style="text;html=1;align=center;verticalAlign=middle;resizable=0;points=[];autosize=1;strokeColor=none;fillColor=none;fontSize=11;fontFamily=Helvetica;fontColor=default;" parent="WIyWlLk6GJQsqaUBKTNV-1" vertex="1">
          <mxGeometry x="220" y="399.94" width="40" height="30" as="geometry" />
        </mxCell>
        <mxCell id="8DFgjJTWfFoxIutx3vbQ-1" value="&lt;h1 style=&quot;text-align: center;&quot;&gt;&lt;font style=&quot;font-size: 18px;&quot;&gt;&lt;span style=&quot;background-color: initial;&quot;&gt;MINIMUNDO - Inovaweek&lt;/span&gt;&lt;/font&gt;&lt;/h1&gt;&lt;div&gt;&lt;span style=&quot;background-color: initial;&quot;&gt;&lt;div style=&quot;text-align: justify;&quot;&gt;O Inova Week é um projeto de inovação feito pela universidade vila velha, que tem como principal objetivo promover que os alunos vendam suas ideias criativas.&amp;nbsp;&lt;span style=&quot;background-color: initial;&quot;&gt;O evento acontece durante 3 dias, onde diferentes grupos apresentam no decorrer desses dias. Cada grupo deve ter um nome e ser formado por 4 alunos, sendo um deles o lider. Os grupos recebem o número do estande e o dia da apresentação. Já os alunos devem ter seu Nome, email e qual grupo ele está inserido. As avaliações podem ser feitas tanto por alunos, com exceção do qual está participando, quanto por professores. A avaliação terá os seguintes critérios: modelo economico receberá até 1 ponto, viabilidade até 2 pontos, inovação até 4 pontos, implementação e prototipação até 3 pontos e por fim a apresentação até 2 pontos. Ao final do Inova Week os grupos irão receber a nota final das avaliações dadas somente pelos professores.&lt;/span&gt;&lt;/div&gt;&lt;/span&gt;&lt;/div&gt;" style="text;html=1;strokeColor=none;fillColor=none;spacing=5;spacingTop=-20;whiteSpace=wrap;overflow=hidden;rounded=0;" vertex="1" parent="WIyWlLk6GJQsqaUBKTNV-1">
          <mxGeometry x="50" y="50" width="750" height="170" as="geometry" />
        </mxCell>
      </root>
    </mxGraphModel>
  </diagram>
</mxfile>
